<svg viewBox="0 0 32 32" xmlns="http://www.w3.org/2000/svg"><path d="m22 3c-3.300781 0-6 2.699219-6 6 0 .992188.382813 2.003906.875 3.125.492188 1.121094 1.113281 2.308594 1.75 3.40625 1.273438 2.195313 2.5625 4.03125 2.5625 4.03125l.8125 1.1875.8125-1.1875s1.289063-1.835937 2.5625-4.03125c.636719-1.097656 1.257813-2.285156 1.75-3.40625.492188-1.121094.875-2.132812.875-3.125 0-3.300781-2.699219-6-6-6zm-10.03125 1.9375-7.96875 3.40625v19.1875l8.03125-3.46875 8 3 7.96875-3.40625v-8.71875c-.636719 1.222656-1.34375 2.394531-2 3.4375v3.96875l-5 2.125v-1.625l-1.46875-2.125c-.15625-.226562-.339844-.496094-.53125-.78125v4.625l-6-2.25v-14.875l1.09375.40625c.097656-.675781.273438-1.328125.53125-1.9375zm10.03125.0625c2.21875 0 4 1.78125 4 4 0 .386719-.242187 1.300781-.6875 2.3125-.445312 1.011719-1.074219 2.160156-1.6875 3.21875-.816406 1.40625-1.167969 1.90625-1.625 2.59375-.457031-.6875-.808594-1.1875-1.625-2.59375-.613281-1.058594-1.242187-2.207031-1.6875-3.21875-.445312-1.011719-.6875-1.925781-.6875-2.3125 0-2.21875 1.78125-4 4-4zm-11 2.5v14.84375l-5 2.125v-14.8125zm11 0c-.828125 0-1.5.671875-1.5 1.5s.671875 1.5 1.5 1.5 1.5-.671875 1.5-1.5-.671875-1.5-1.5-1.5z"/></svg>