<svg height="24" viewBox="0 0 24 24" width="24" xmlns="http://www.w3.org/2000/svg"><path d="m6.93701993 5.84537513c.07084842-.09849391.14953631-.21906948.24987492-.38165425.05622662-.09110742.26137492-.43045706.29490769-.48530893.8289831-1.3560247 1.43159227-1.97841195 2.51819746-1.97841195h4c1.0866052 0 1.6892144.62238725 2.5181975 1.97841195.0335327.05485187.238681.39420151.2949077.48530893.1003386.16258477.1790264.28316034.2498749.38165425.0467218.06495298.0875304.11656423.1208234.15462487h2.8161965c1.6568542 0 3 1.34314575 3 3v9c0 1.6568542-1.3431458 3-3 3h-16c-1.65685425 0-3-1.3431458-3-3v-9c0-1.65685425 1.34314575-3 3-3h2.81619653c.03329294-.03806064.07410157-.08967189.1208234-.15462487zm-2.93701993 2.15462487c-.55228475 0-1 .44771525-1 1v9c0 .5522847.44771525 1 1 1h16c.5522847 0 1-.4477153 1-1v-9c0-.55228475-.4477153-1-1-1h-3c-.6643421 0-1.1123691-.3635927-1.5606137-.98674499-.1031337-.14337712-.2053051-.29993712-.328258-.4991652-.0620896-.10060756-.2702915-.44500837-.2993258-.49250176-.4523045-.73986571-.7250744-1.02158805-.8118025-1.02158805h-4c-.08672814 0-.35949797.28172234-.81180254 1.02158805-.02903429.04749339-.23723619.3918942-.29932579.49250176-.1229529.19922808-.2251243.35578808-.32825801.4991652-.44824454.62315229-.89627152.98674499-1.56061366.98674499zm15 3c.5522847 0 1-.4477153 1-1 0-.55228475-.4477153-1-1-1s-1 .44771525-1 1c0 .5522847.4477153 1 1 1zm-7 7c-2.76142375 0-5-2.2385763-5-5s2.23857625-5 5-5c2.7614237 0 5 2.2385763 5 5s-2.2385763 5-5 5zm0-2c1.6568542 0 3-1.3431458 3-3s-1.3431458-3-3-3-3 1.3431458-3 3 1.3431458 3 3 3z" fill-rule="evenodd"/></svg>