<svg id="icon_editar" data-name="icon editar" xmlns="http://www.w3.org/2000/svg" width="44.624" height="44.617" viewBox="0 0 44.624 44.617">
  <path id="Caminho_13948" data-name="Caminho 13948" d="M41.374,3.243a11.1,11.1,0,0,0-15.676,0L21.524,7.417,2.741,26.2a2.225,2.225,0,0,0-.631,1.261L.022,42.071a2.231,2.231,0,0,0,2.209,2.547,2.186,2.186,0,0,0,.316-.022l14.61-2.087a2.238,2.238,0,0,0,1.261-.632L41.376,18.921a11.085,11.085,0,0,0,0-15.677h0ZM15.789,38.2,4.861,39.757,6.422,28.83,23.1,12.15l9.368,9.367Zm22.43-22.431-2.595,2.6L26.255,8.994l2.6-2.6a6.784,6.784,0,0,1,9.367,0,6.626,6.626,0,0,1,0,9.369Z" transform="translate(0.001 -0.001)" fill="#0f0f24"/>
</svg>
