<svg height="12" viewBox="0 0 12 12" width="12" xmlns="http://www.w3.org/2000/svg"><path d="m8.5 6c.82843 0 1.5.67157 1.5 1.5 0 1.11608-.45897 2.01027-1.21215 2.6148-.74127.595-1.73477.8852-2.78785.8852s-2.04658-.2902-2.78785-.8852c-.75318-.60453-1.21215-1.49872-1.21215-2.6148 0-.77966118.59487668-1.42044457 1.3555213-1.49313306l.1444587-.00686694zm0 1h-5.00002c-.27611 0-.49998.22387-.49998.5 0 .81691.32453 1.42273.8381 1.83495.52548.42178 1.28198.66505 2.1619.66505s1.63642-.24327 2.1619-.66505c.51357-.41222.8381-1.01804.8381-1.83495 0-.24545778-.17687704-.4496079-.41012499-.49194425zm-2.5-6c1.10457 0 2 .89543 2 2s-.89543 2-2 2-2-.89543-2-2 .89543-2 2-2zm0 1c-.55228 0-1 .44772-1 1s.44772 1 1 1 1-.44772 1-1-.44772-1-1-1z" fill="#212121"/></svg>